<svg width="133" height="94" viewBox="0 0 133 94" fill="none" xmlns="http://www.w3.org/2000/svg">
<path d="M132.188 93.9197C116.936 94.5941 80.3022 87.25 55.5811 52.5125C40.1635 30.8481 29.9424 18.8385 21.9082 11.868C14.3265 5.29009 8.69229 3.20063 2.45801 1.71955C2.28067 2.1197 1.87991 2.39916 1.41406 2.39924C0.783731 2.39924 0.272543 1.88795 0.272461 1.25764C0.272461 0.627255 0.78368 0.116035 1.41406 0.116035C2.04435 0.116143 2.55566 0.627321 2.55566 1.25764C2.55566 1.27269 2.55429 1.28765 2.55371 1.30256C8.84012 2.79594 14.5415 4.91022 22.1885 11.5447C30.2635 18.5506 40.5091 30.5958 55.9297 52.2645C80.5493 86.8594 117.029 94.1613 132.168 93.492L132.188 93.9197Z" fill="#E07307"/>
</svg>
